<?xml version="1.0" encoding="UTF-8" standalone="no"?>
<!-- Created with Inkscape (http://www.inkscape.org/) -->

<svg
   width="256"
   height="256"
   viewBox="0 0 256 256"
   version="1.1"
   id="svg1"
   inkscape:version="1.4.4 (dcaf3e7d9e, 2026-05-05)"
   sodipodi:docname="QSMSharp_Small_Inkscape.svg"
   inkscape:export-filename="QSMSharp_Small.svg"
   inkscape:export-xdpi="96"
   inkscape:export-ydpi="96"
   xmlns:inkscape="http://www.inkscape.org/namespaces/inkscape"
   xmlns:sodipodi="http://sodipodi.sourceforge.net/DTD/sodipodi-0.dtd"
   xmlns:xlink="http://www.w3.org/1999/xlink"
   xmlns="http://www.w3.org/2000/svg"
   xmlns:svg="http://www.w3.org/2000/svg">
  <sodipodi:namedview
     id="namedview1"
     pagecolor="#ffffff"
     bordercolor="#000000"
     borderopacity="0.25"
     inkscape:showpageshadow="2"
     inkscape:pageopacity="0.0"
     inkscape:pagecheckerboard="0"
     inkscape:deskcolor="#d1d1d1"
     inkscape:document-units="px"
     inkscape:zoom="1.0501969"
     inkscape:cx="239.4789"
     inkscape:cy="210.91283"
     inkscape:window-width="1536"
     inkscape:window-height="790"
     inkscape:window-x="0"
     inkscape:window-y="0"
     inkscape:window-maximized="1"
     inkscape:current-layer="svg1"
     showgrid="true">
    <inkscape:grid
       id="grid8"
       units="px"
       originx="0"
       originy="0"
       spacingx="1"
       spacingy="1"
       empcolor="#0099e5"
       empopacity="0.30196078"
       color="#0099e5"
       opacity="0.14901961"
       empspacing="5"
       enabled="true"
       visible="true" />
  </sodipodi:namedview>
  <defs
     id="defs1">
    <linearGradient
       id="linearGradient7"
       inkscape:collect="always">
      <stop
         style="stop-color:#377f99;stop-opacity:1;"
         offset="0"
         id="stop7" />
      <stop
         style="stop-color:#ffffff;stop-opacity:0;"
         offset="1"
         id="stop8" />
    </linearGradient>
    <linearGradient
       id="linearGradient5"
       inkscape:collect="always">
      <stop
         style="stop-color:#993759;stop-opacity:1;"
         offset="0"
         id="stop5" />
      <stop
         style="stop-color:#ffffff;stop-opacity:0;"
         offset="1"
         id="stop6" />
    </linearGradient>
    <inkscape:path-effect
       effect="perspective-envelope"
       up_left_point="248.33,154.25"
       up_right_point="269.32,154.25"
       down_left_point="238.33,185.91911"
       down_right_point="279.32,185.91911"
       id="path-effect2"
       is_visible="true"
       lpeversion="1"
       deform_type="perspective"
       horizontal_mirror="false"
       vertical_mirror="false"
       overflow_perspective="false" />
    <inkscape:perspective
       sodipodi:type="inkscape:persp3d"
       inkscape:vp_x="0 : 0 : 1"
       inkscape:vp_y="0 : 1000 : 0"
       inkscape:vp_z="512 : 0 : 1"
       inkscape:persp3d-origin="256 : -85.33333 : 1"
       id="perspective6" />
    <linearGradient
       inkscape:collect="always"
       xlink:href="#linearGradient5"
       id="linearGradient6"
       x1="143.87033"
       y1="198.57176"
       x2="124.02349"
       y2="311.12878"
       gradientUnits="userSpaceOnUse" />
    <linearGradient
       inkscape:collect="always"
       xlink:href="#linearGradient7"
       id="linearGradient8"
       x1="349.67966"
       y1="204.06955"
       x2="364.33923"
       y2="371.62946"
       gradientUnits="userSpaceOnUse" />
  </defs>
  <g
     inkscape:label="Layer 1"
     inkscape:groupmode="layer"
     id="layer1"
     transform="matrix(0.66572748,0,0,0.66572748,-42.426235,-42.479321)">
    <path
       style="fill:#ffffff;fill-opacity:1;stroke:none;stroke-opacity:1"
       d="M 257.634,406 96,356 V 150 L 258.07129,106 416,150 v 206 z"
       id="path8"
       sodipodi:nodetypes="ccccccc"
       inkscape:label="CubeFill" />
    <path
       style="fill:url(#linearGradient6);stroke:#993759;stroke-opacity:1"
       d="m 96,246.52946 21.48422,6.18956 8.46126,-19.20942 12.16693,8.2849 8.48674,-18.26842 3.57446,36.49812 23.20106,6.8018 15.11885,25.64593 23.56044,-14.3057 45.58004,13.36323 V 406 L 96,356 Z"
       id="path5"
       sodipodi:nodetypes="ccccccccccccc"
       inkscape:label="SGradientPath" />
    <path
       style="fill:url(#linearGradient8);stroke:#377f99;stroke-opacity:1"
       d="M 257.634,406 V 291.52946 l 67.73981,-19.25777 16.83748,-27.48811 18.25318,7.17002 8.5025,-19.90904 14.12904,-10.81417 16.25376,29.6125 L 416,246.52946 V 356"
       id="path6"
       sodipodi:nodetypes="cccccccccc"
       inkscape:label="MGradientPath" />
    <path
       style="fill:none;fill-opacity:1;stroke:#000000;stroke-opacity:1"
       d="M 257.634,406 96,356 V 150 L 258.07129,106 416,150 v 206 z"
       id="path11"
       sodipodi:nodetypes="ccccccc"
       inkscape:label="CubeBorder" />
    <path
       style="display:inline;fill:none;stroke:#000000;stroke-opacity:1"
       d="m 96,150 161.634,50 v 206"
       id="path12"
       sodipodi:nodetypes="ccc"
       inkscape:label="LeftFaceTopRightBorder" />
    <path
       style="fill:none;stroke:#000000;stroke-opacity:1"
       d="M 257.634,200 416,150"
       id="path13"
       sodipodi:nodetypes="cc"
       inkscape:label="RightFaceTopBorder" />
    <path
       style="font-size:48px;font-family:Inter;-inkscape-font-specification:Inter"
       d="m 258.854,181.71281 c -3.69225,0 -6.87483,-0.9889 -9.42122,-2.87309 -2.36884,-1.78755 -3.88337,-4.14294 -4.59223,-6.91505 -0.63506,-2.51378 -0.45239,-5.19122 0.41599,-7.9413 0.77292,-2.44775 1.89998,-4.34179 3.358,-5.79818 1.35395,-1.35816 2.89988,-2.3386 4.65947,-2.99529 1.70514,-0.6324 3.54514,-0.9399 5.56687,-0.9399 2.02173,0 3.85667,0.3075 5.55144,0.9399 1.7599,0.65669 3.3006,1.63713 4.64314,2.99529 1.45802,1.45639 2.58508,3.35043 3.358,5.79818 0.77116,2.4422 0.99253,4.83062 0.5682,7.10211 -0.44993,2.49813 -1.53348,4.70136 -3.29913,6.50263 l 7.54906,8.331 h -6.1392 l -4.74891,-5.89533 c -2.19437,1.11538 -4.70513,1.68903 -7.46948,1.68903 z m -1.43007,-12.61936 4.54773,0 4.22993,4.62163 c 1.21384,-1.1758 2.02632,-2.65933 2.45416,-4.39432 0.4112,-1.63164 0.37456,-3.4271 -0.0598,-5.33739 -0.45584,-2.00467 -1.2093,-3.55153 -2.2433,-4.72299 -0.96393,-1.11203 -2.09417,-1.90844 -3.4036,-2.42574 -1.26202,-0.51018 -2.62219,-0.75986 -4.10728,-0.75986 -1.49626,0 -2.86752,0.24968 -4.14078,0.75986 -1.3106,0.52514 -2.44776,1.32598 -3.42444,2.43876 -1.02245,1.17227 -1.76888,2.71525 -2.22246,4.70997 -0.49725,2.18677 -0.48514,4.21522 0.10727,6.01105 0.6555,1.93794 1.81422,3.51552 3.4891,4.65112 1.74895,1.18582 3.83551,1.79861 6.20104,1.79861 1.42991,0 2.77767,-0.22687 4.0279,-0.67509 z"
       id="text13"
       aria-label="Q"
       inkscape:path-effect="#path-effect2"
       inkscape:original-d="m 258.84818,183.10661 q -4.47657,0 -7.99219,-2.15625 -3.49219,-2.17968 -5.50781,-6.1875 -2.01563,-4.03125 -2.01563,-9.5625 0,-5.55468 2.01563,-9.5625 2.01562,-4.03125 5.50781,-6.21093 3.51562,-2.17969 7.99219,-2.17969 4.47656,0 7.96875,2.17969 3.49218,2.17968 5.48437,6.21093 2.01563,4.00782 2.01563,9.5625 0,4.94532 -1.64063,8.69532 -1.61719,3.75 -4.45312,6.04687 l 4.5,5.97656 h -4.64063 l -3.02344,-4.05468 q -2.85937,1.24218 -6.21093,1.24218 z m -1.45313,-11.39062 h 4.64063 l 3.65625,4.80469 q 1.96875,-1.71094 3.11718,-4.54688 1.17188,-2.85937 1.17188,-6.77344 0,-4.5 -1.5,-7.57031 -1.47656,-3.09375 -4.00781,-4.66406 -2.50782,-1.59375 -5.625,-1.59375 -3.14063,0 -5.67188,1.59375 -2.53125,1.59375 -4.03125,4.6875 -1.47656,3.07031 -1.47656,7.54687 0,4.45313 1.47656,7.52344 1.5,3.07031 4.03125,4.66406 2.53125,1.59375 5.67188,1.59375 1.89843,0 3.60937,-0.58593 z"
       inkscape:label="Q"
       transform="matrix(1.494993,0,0,1.494993,-133.94958,-92.028666)" />
    <path
       d="m 226.42209,257.52041 q -8.47104,-2.2698 -13.47664,-7.60154 -5.0056,-5.36673 -5.46066,-12.03445 l 6.82582,1.82897 q 0.28003,3.01539 1.99525,5.4002 1.71521,2.34984 4.37553,4.00778 2.69532,1.6323 5.7407,2.44831 3.53541,0.94732 6.33575,0.54254 2.83535,-0.39541 4.48055,-2.05484 1.64521,-1.65943 1.64521,-4.42476 0,-2.5203 -1.43518,-4.48005 -1.40017,-1.95037 -3.74545,-3.59392 -2.3453,-1.64352 -5.14564,-3.16398 l -6.30076,-3.47349 q -6.30076,-3.4735 -9.80119,-7.73684 -3.50042,-4.26334 -3.50042,-9.44397 0,-4.41053 2.38029,-7.06314 2.38028,-2.6876 6.44078,-3.41982 4.06049,-0.73221 9.1011,0.61842 5.14563,1.37876 9.1011,4.25886 3.95549,2.88007 6.23077,6.64012 2.31027,3.73441 2.45029,7.72741 l -6.51079,-1.74456 q -0.45506,-3.9374 -3.64044,-6.85617 -3.18538,-2.95377 -7.84095,-4.20123 -5.07562,-1.36001 -8.15599,0.22991 -3.08037,1.5549 -3.08037,5.23034 0,2.73034 1.6802,4.86074 1.71521,2.1048 4.02548,3.66894 2.3453,1.53855 4.23552,2.57009 l 5.21564,2.8327 q 2.10025,1.12282 4.62056,2.77826 2.55531,1.66481 4.86558,3.92904 2.31029,2.22925 3.78046,5.14348 1.50518,2.88861 1.50518,6.52905 0,4.27051 -2.24027,7.10066 -2.20527,2.8395 -6.44078,3.69985 -4.2355,0.86034 -10.25623,-0.75291 z"
       id="text1"
       style="font-size:48px;font-family:Inter;-inkscape-font-specification:Inter;stroke-width:1.49351"
       aria-label="S"
       inkscape:label="S" />
    <path
       d="m 272,263.45571 v -52.41197 l 9.49747,-2.54484 12.90954,29.60619 q 0.73868,1.70155 1.82914,4.82142 1.09045,3.11987 2.04019,6.06639 0.91458,-3.34053 2.00503,-7.04477 1.09044,-3.73943 1.86432,-5.91663 L 314.87933,199.55426 324.41197,197 v 52.41197 l -6.57787,1.76254 v -29.93462 q 0,-2.88441 0.0704,-7.08921 0.0704,-4.20479 0.17587,-8.31345 -1.4422,4.88894 -2.91959,9.5411 -1.44222,4.64271 -2.35678,7.20937 l -11.71355,33.07326 -5.80402,1.55518 -11.88942,-26.74886 q -0.8794,-1.98045 -2.32161,-5.77993 -1.40704,-3.84407 -2.95477,-8.03741 0.0704,3.70978 0.14062,7.94724 0.10551,4.19284 0.10551,7.21795 v 29.93463 z"
       id="text2"
       style="font-size:48px;font-family:Inter;-inkscape-font-specification:Inter;stroke-width:1.50084"
       aria-label="M"
       inkscape:label="M" />
  </g>
</svg>
