<?xml version="1.0" encoding="UTF-8" standalone="no"?>
<!-- Created with Inkscape (http://www.inkscape.org/) -->

<svg
   width="724"
   height="256"
   viewBox="0 0 724 256"
   version="1.1"
   id="svg1"
   xmlns:xlink="http://www.w3.org/1999/xlink"
   xmlns="http://www.w3.org/2000/svg"
   xmlns:svg="http://www.w3.org/2000/svg">
  <defs
     id="defs1">
    <linearGradient
       id="linearGradient7">
      <stop
         style="stop-color:#377f99;stop-opacity:1;"
         offset="0"
         id="stop7" />
      <stop
         style="stop-color:#ffffff;stop-opacity:0;"
         offset="1"
         id="stop8" />
    </linearGradient>
    <linearGradient
       id="linearGradient5">
      <stop
         style="stop-color:#993759;stop-opacity:1;"
         offset="0"
         id="stop5" />
      <stop
         style="stop-color:#ffffff;stop-opacity:0;"
         offset="1"
         id="stop6" />
    </linearGradient>
    <linearGradient
       xlink:href="#linearGradient5"
       id="linearGradient6"
       x1="143.87033"
       y1="198.57176"
       x2="124.02349"
       y2="311.12878"
       gradientUnits="userSpaceOnUse" />
    <linearGradient
       xlink:href="#linearGradient7"
       id="linearGradient8"
       x1="349.67966"
       y1="204.06955"
       x2="364.33923"
       y2="371.62946"
       gradientUnits="userSpaceOnUse" />
  </defs>
  <g
     id="layer1"
     transform="matrix(0.66572748,0,0,0.66572748,-34.376997,-42.479321)">
    <path
       style="fill:#ffffff;fill-opacity:1;stroke:none;stroke-opacity:1"
       d="M 257.634,406 96,356 V 150 L 258.07129,106 416,150 v 206 z"
       id="path8" />
    <path
       style="fill:url(#linearGradient6);stroke:#993759;stroke-opacity:1"
       d="m 96,246.52946 21.48422,6.18956 8.46126,-19.20942 12.16693,8.2849 8.48674,-18.26842 3.57446,36.49812 23.20106,6.8018 15.11885,25.64593 23.56044,-14.3057 45.58004,13.36323 V 406 L 96,356 Z"
       id="path5" />
    <path
       style="fill:url(#linearGradient8);stroke:#377f99;stroke-opacity:1"
       d="M 257.634,406 V 291.52946 l 67.73981,-19.25777 16.83748,-27.48811 18.25318,7.17002 8.5025,-19.90904 14.12904,-10.81417 16.25376,29.6125 L 416,246.52946 V 356"
       id="path6" />
    <path
       style="fill:none;fill-opacity:1;stroke:#000000;stroke-opacity:1"
       d="M 257.634,406 96,356 V 150 L 258.07129,106 416,150 v 206 z"
       id="path11" />
    <path
       style="display:inline;fill:none;stroke:#000000;stroke-opacity:1"
       d="m 96,150 161.634,50 v 206"
       id="path12" />
    <path
       style="fill:none;stroke:#000000;stroke-opacity:1"
       d="M 257.634,200 416,150"
       id="path13" />
    <path
       style="font-size:48px;font-family:Inter;-inkscape-font-specification:Inter"
       d="m 258.854,181.71281 c -3.69225,0 -6.87483,-0.9889 -9.42122,-2.87309 -2.36884,-1.78755 -3.88337,-4.14294 -4.59223,-6.91505 -0.63506,-2.51378 -0.45239,-5.19122 0.41599,-7.9413 0.77292,-2.44775 1.89998,-4.34179 3.358,-5.79818 1.35395,-1.35816 2.89988,-2.3386 4.65947,-2.99529 1.70514,-0.6324 3.54514,-0.9399 5.56687,-0.9399 2.02173,0 3.85667,0.3075 5.55144,0.9399 1.7599,0.65669 3.3006,1.63713 4.64314,2.99529 1.45802,1.45639 2.58508,3.35043 3.358,5.79818 0.77116,2.4422 0.99253,4.83062 0.5682,7.10211 -0.44993,2.49813 -1.53348,4.70136 -3.29913,6.50263 l 7.54906,8.331 h -6.1392 l -4.74891,-5.89533 c -2.19437,1.11538 -4.70513,1.68903 -7.46948,1.68903 z m -1.43007,-12.61936 4.54773,0 4.22993,4.62163 c 1.21384,-1.1758 2.02632,-2.65933 2.45416,-4.39432 0.4112,-1.63164 0.37456,-3.4271 -0.0598,-5.33739 -0.45584,-2.00467 -1.2093,-3.55153 -2.2433,-4.72299 -0.96393,-1.11203 -2.09417,-1.90844 -3.4036,-2.42574 -1.26202,-0.51018 -2.62219,-0.75986 -4.10728,-0.75986 -1.49626,0 -2.86752,0.24968 -4.14078,0.75986 -1.3106,0.52514 -2.44776,1.32598 -3.42444,2.43876 -1.02245,1.17227 -1.76888,2.71525 -2.22246,4.70997 -0.49725,2.18677 -0.48514,4.21522 0.10727,6.01105 0.6555,1.93794 1.81422,3.51552 3.4891,4.65112 1.74895,1.18582 3.83551,1.79861 6.20104,1.79861 1.42991,0 2.77767,-0.22687 4.0279,-0.67509 z"
       id="text13"
       aria-label="Q"
       transform="matrix(1.494993,0,0,1.494993,-133.94958,-92.028666)" />
    <path
       d="m 226.42209,257.52041 q -8.47104,-2.2698 -13.47664,-7.60154 -5.0056,-5.36673 -5.46066,-12.03445 l 6.82582,1.82897 q 0.28003,3.01539 1.99525,5.4002 1.71521,2.34984 4.37553,4.00778 2.69532,1.6323 5.7407,2.44831 3.53541,0.94732 6.33575,0.54254 2.83535,-0.39541 4.48055,-2.05484 1.64521,-1.65943 1.64521,-4.42476 0,-2.5203 -1.43518,-4.48005 -1.40017,-1.95037 -3.74545,-3.59392 -2.3453,-1.64352 -5.14564,-3.16398 l -6.30076,-3.47349 q -6.30076,-3.4735 -9.80119,-7.73684 -3.50042,-4.26334 -3.50042,-9.44397 0,-4.41053 2.38029,-7.06314 2.38028,-2.6876 6.44078,-3.41982 4.06049,-0.73221 9.1011,0.61842 5.14563,1.37876 9.1011,4.25886 3.95549,2.88007 6.23077,6.64012 2.31027,3.73441 2.45029,7.72741 l -6.51079,-1.74456 q -0.45506,-3.9374 -3.64044,-6.85617 -3.18538,-2.95377 -7.84095,-4.20123 -5.07562,-1.36001 -8.15599,0.22991 -3.08037,1.5549 -3.08037,5.23034 0,2.73034 1.6802,4.86074 1.71521,2.1048 4.02548,3.66894 2.3453,1.53855 4.23552,2.57009 l 5.21564,2.8327 q 2.10025,1.12282 4.62056,2.77826 2.55531,1.66481 4.86558,3.92904 2.31029,2.22925 3.78046,5.14348 1.50518,2.88861 1.50518,6.52905 0,4.27051 -2.24027,7.10066 -2.20527,2.8395 -6.44078,3.69985 -4.2355,0.86034 -10.25623,-0.75291 z"
       id="text1"
       style="font-size:48px;font-family:Inter;-inkscape-font-specification:Inter;stroke-width:1.49351"
       aria-label="S" />
    <path
       d="m 272,263.45571 v -52.41197 l 9.49747,-2.54484 12.90954,29.60619 q 0.73868,1.70155 1.82914,4.82142 1.09045,3.11987 2.04019,6.06639 0.91458,-3.34053 2.00503,-7.04477 1.09044,-3.73943 1.86432,-5.91663 L 314.87933,199.55426 324.41197,197 v 52.41197 l -6.57787,1.76254 v -29.93462 q 0,-2.88441 0.0704,-7.08921 0.0704,-4.20479 0.17587,-8.31345 -1.4422,4.88894 -2.91959,9.5411 -1.44222,4.64271 -2.35678,7.20937 l -11.71355,33.07326 -5.80402,1.55518 -11.88942,-26.74886 q -0.8794,-1.98045 -2.32161,-5.77993 -1.40704,-3.84407 -2.95477,-8.03741 0.0704,3.70978 0.14062,7.94724 0.10551,4.19284 0.10551,7.21795 v 29.93463 z"
       id="text2"
       style="font-size:48px;font-family:Inter;-inkscape-font-specification:Inter;stroke-width:1.50084"
       aria-label="M" />
  </g>
  <path
     style="font-size:162.667px;font-family:Inter;-inkscape-font-specification:Inter;fill:#1a1a1a"
     d="m 350.70541,188.63148 q -15.1706,0 -27.08469,-7.3073 -11.83466,-7.38674 -18.6654,-20.9688 -6.83075,-13.66148 -6.83075,-32.40632 0,-18.82425 6.83075,-32.406313 6.83074,-13.661487 18.6654,-21.048222 11.91409,-7.386734 27.08469,-7.386734 15.17061,0 27.00527,7.386734 11.83466,7.386735 18.58597,21.048222 6.83075,13.582063 6.83075,32.406313 0,16.75915 -5.55991,29.46751 -5.48048,12.70836 -15.09118,20.49223 l 15.25003,20.25395 h -15.72659 l -10.24612,-13.74091 q -9.69012,4.20964 -21.04822,4.20964 z m -4.92449,-38.60164 h 15.7266 l 12.39065,16.28259 q 6.67189,-5.79819 10.56382,-15.40889 3.97137,-9.69012 3.97137,-22.95448 0,-15.25003 -5.08335,-25.655 -5.00392,-10.484394 -13.58206,-15.80602 -8.49871,-5.401053 -19.06254,-5.401053 -10.64325,0 -19.22139,5.401053 -8.57815,5.401053 -13.66149,15.88545 -5.00392,10.40497 -5.00392,25.57557 0,15.09118 5.00392,25.49615 5.08334,10.40497 13.66149,15.80602 8.57814,5.40106 19.22139,5.40106 6.43361,0 12.2318,-1.98568 z m 119.2203,39.07821 q -19.22139,0 -30.57949,-9.05471 -11.35809,-9.13413 -12.39065,-23.98703 h 15.48831 q 0.63542,6.67189 4.52736,11.04039 3.89193,4.28907 9.9284,6.43361 6.1159,2.0651 13.02607,2.0651 8.02216,0 14.37634,-2.62109 6.4336,-2.6211 10.16668,-7.38674 3.73308,-4.76563 3.73308,-11.04039 0,-5.71876 -3.25651,-9.29299 -3.17709,-3.57422 -8.49872,-5.87761 -5.32162,-2.30339 -11.6758,-4.05079 l -14.29691,-4.05079 q -14.2969,-4.05079 -22.23963,-11.59638 -7.94272,-7.54559 -7.94272,-19.30082 0,-10.007835 5.40105,-17.473996 5.40105,-7.545589 14.61461,-11.675806 9.21356,-4.130217 20.65109,-4.130217 11.6758,0 20.65108,4.130217 8.97528,4.130217 14.13805,11.27867 5.2422,7.069025 5.55991,16.044304 h -14.77347 q -1.03255,-8.65757 -8.26043,-13.343778 -7.22788,-4.765635 -17.79171,-4.765635 -11.51695,0 -18.50655,5.48048 -6.98959,5.401053 -6.98959,13.740915 0,6.195326 3.8125,10.007836 3.89194,3.73308 9.13414,5.87761 5.32162,2.06511 9.6107,3.25652 l 11.83466,3.25652 q 4.76563,1.27083 10.48439,3.4948 5.79819,2.22396 11.04039,5.95704 5.2422,3.65365 8.57814,9.37242 3.41538,5.63933 3.41538,13.89976 0,9.69013 -5.08335,17.474 -5.00392,7.78387 -14.61461,12.31122 -9.6107,4.52736 -23.27219,4.52736 z m 66.48062,-2.06511 V 68.696336 h 21.44536 l 29.1498,74.661614 q 1.66797,4.28907 4.13022,11.99352 2.46224,7.70444 4.60678,14.93232 2.06511,-6.9896 4.52735,-14.69404 2.46224,-7.78387 4.20964,-12.2318 l 28.75267,-74.661614 h 21.52478 V 187.04294 h -14.85289 v -67.59259 q 0,-6.51304 0.15885,-15.96488 0.15886,-9.451841 0.39714,-18.665402 -3.25652,10.166688 -6.59246,19.777382 -3.25652,9.6107 -5.32163,14.8529 l -26.44927,67.59259 h -13.1055 l -26.84641,-67.59259 q -1.98568,-5.00392 -5.2422,-14.45576 -3.17709,-9.531271 -6.67189,-19.93624 0.15886,8.419288 0.31771,18.02999 0.23828,9.53127 0.23828,16.36201 v 67.59259 z"
     id="text4"
     aria-label="QSM" />
</svg>
